<?xml version="1.0" encoding="UTF-8"?>
<svg version="1.1" xmlns="http://www.w3.org/2000/svg" width="192" height="120">
<path d="M0 0 C4.28142488 3.03533854 7.54609935 6.44527103 10.71875 10.609375 C8.41300786 13.2994075 5.65589141 14.92833965 2.62866211 16.7175293 C-4.46391955 20.9152144 -10.99411796 25.54159509 -17.34375 30.796875 C-18.03291504 31.36639893 -18.72208008 31.93592285 -19.43212891 32.52270508 C-23.46669332 35.92046522 -27.21377914 39.48005821 -30.83374023 43.31762695 C-32.28125 44.609375 -32.28125 44.609375 -34.28125 44.609375 C-34.65830078 45.48529297 -34.65830078 45.48529297 -35.04296875 46.37890625 C-36.43924438 48.89396424 -37.97281703 50.3569493 -40.09375 52.296875 C-47.01082915 59.01051065 -52.55612551 66.88318446 -58.28125 74.609375 C-66.15595019 72.78264204 -72.50097385 70.77872249 -77.15625 63.734375 C-80.96475818 56.88675423 -82.64189003 49.79121368 -80.62890625 42.125 C-78.20733842 35.26562332 -74.71960109 29.7410016 -68.00390625 26.515625 C-64.08019945 25.10544086 -60.48617651 24.20244663 -56.28125 24.609375 C-56.095625 23.51625 -55.91 22.423125 -55.71875 21.296875 C-53.49270482 12.57819803 -48.03240692 5.18027513 -40.71484375 0.046875 C-27.78342253 -7.5915889 -12.92474572 -7.87878335 0 0 Z " fill="#04B6FD" transform="translate(118.28125,32.390625)"/>
<path d="M0 0 C8.54198859 3.30892732 14.36800451 9.50013675 18.9375 17.3125 C21.84043947 27.38740756 21.63368777 36.12782917 16.70703125 45.4453125 C12.50926533 52.26527536 7.56019932 56.37304549 0 59 C-13.01772716 60.69556097 -26.4037587 60.117754 -39.5 60.0625 C-41.595051 60.05747084 -43.69010319 60.05291046 -45.78515625 60.04882812 C-50.85680062 60.03794422 -55.92838683 60.02075912 -61 60 C-59.9425209 52.64337511 -56.29039593 47.92390343 -52 42 C-51.25363281 40.96359375 -50.50726563 39.9271875 -49.73828125 38.859375 C-40.25153198 26.12674622 -29.61781584 14.66428252 -17 5 C-16.29359375 4.36964844 -15.5871875 3.73929688 -14.859375 3.08984375 C-9.86531872 -1.22588599 -6.33462194 -2.02145785 0 0 Z " fill="#05B6FC" transform="translate(142,47)"/>
<path d="M0 0 C0.66 0.66 1.32 1.32 2 2 C0.10676602 4.23141932 -1.78947696 6.46015996 -3.6875 8.6875 C-4.21794922 9.31333984 -4.74839844 9.93917969 -5.29492188 10.58398438 C-8.39525595 14.21689118 -11.5721035 17.67385924 -15 21 C-15.86949317 19.92892883 -16.72014205 18.84254056 -17.5625 17.75 C-18.03816406 17.14671875 -18.51382813 16.5434375 -19.00390625 15.921875 C-20 14 -20 14 -19.65234375 11.765625 C-19.43707031 11.18296875 -19.22179687 10.6003125 -19 10 C-19.70125 10.2475 -20.4025 10.495 -21.125 10.75 C-25.18352105 11.10291487 -26.91651657 9.50981209 -30 7 C-30 6.34 -30 5.68 -30 5 C-25.76659126 4.23684739 -21.5309145 3.48850371 -17.29248047 2.75390625 C-15.85035486 2.50180229 -14.40893414 2.24563152 -12.96826172 1.98535156 C-10.89982228 1.61237762 -8.82930628 1.25400109 -6.7578125 0.8984375 C-5.5114502 0.67849121 -4.26508789 0.45854492 -2.98095703 0.23193359 C-1.99724121 0.15539551 -1.01352539 0.07885742 0 0 Z " fill="#41C2F0" transform="translate(165,26)"/>
<path d="M0 0 C0.6953125 1.73046875 0.6953125 1.73046875 1 4 C-0.2578125 6.11328125 -0.2578125 6.11328125 -2.125 8.3125 C-2.76953125 9.09625 -3.4140625 9.88 -4.078125 10.6875 C-4.71234375 11.450625 -5.3465625 12.21375 -6 13 C-9.90893202 18.0451154 -9.90893202 18.0451154 -12 24 C-10.10664917 23.75334595 -10.10664917 23.75334595 -8.17504883 23.50170898 C-2.8342327 22.91084648 2.43350263 22.90785755 7.80078125 22.97265625 C9.84960777 22.98528873 11.89843598 22.99765067 13.94726562 23.00976562 C17.14466724 23.03467404 20.34197937 23.06280557 23.53930664 23.09594727 C26.64730407 23.12608974 29.75518467 23.1438919 32.86328125 23.16015625 C34.29925407 23.18034569 34.29925407 23.18034569 35.76423645 23.20094299 C36.65583969 23.20432175 37.54744293 23.2077005 38.46606445 23.21118164 C39.24722122 23.21863907 40.02837799 23.2260965 40.83320618 23.23377991 C43.27992408 22.96979841 44.83136549 22.12355721 47 21 C50.25 20.875 50.25 20.875 53 21 C49.86285092 24.63248841 46.55437496 25.79754242 41.83789062 26.41186523 C29.72304438 27.10035484 17.63174794 27.11368473 5.5 27.0625 C3.404949 27.05747084 1.30989681 27.05291046 -0.78515625 27.04882812 C-5.85680062 27.03794422 -10.92838683 27.02075912 -16 27 C-15.31072916 22.14101929 -14.18730845 19.24308767 -11.375 15.1875 C-10.30378906 13.63869141 -10.30378906 13.63869141 -9.2109375 12.05859375 C-6.24399265 7.95414531 -3.18303783 3.93900932 0 0 Z " fill="#21BAF0" transform="translate(97,80)"/>
<path d="M0 0 C0.33 0 0.66 0 1 0 C1.75 3.1875 1.75 3.1875 2 7 C0.125 9.8125 0.125 9.8125 -2 12 C-2.33 12.66 -2.66 13.32 -3 14 C-3.66 14 -4.32 14 -5 14 C-5.33 14.99 -5.66 15.98 -6 17 C-6.99 16.855625 -7.98 16.71125 -9 16.5625 C-12.82807058 16.50803558 -14.4840822 17.95433121 -17.25 20.5 C-17.89453125 21.1496875 -18.5390625 21.799375 -19.203125 22.46875 C-21 24 -21 24 -24 24 C-23.67 24.99 -23.34 25.98 -23 27 C-23.66 27.66 -24.32 28.32 -25 29 C-25.99 29 -26.98 29 -28 29 C-26.70811245 23.11473452 -23.73042893 19.54111504 -19 16 C-14.51505039 13.82269113 -10.02278171 12.51392435 -5 13 C-4.731875 11.783125 -4.46375 10.56625 -4.1875 9.3125 C-3.3099455 5.78347726 -2.14426522 2.98332553 0 0 Z " fill="#3DC1F3" transform="translate(67,44)"/>
<path d="M0 0 C0.09243891 5.70480127 -0.71399808 9.22517626 -4.5625 13.5625 C-5.69004005 14.72633912 -6.82998843 15.8788662 -8 17 C-11.08089673 14.22719294 -12.68775452 11.93673644 -14 8 C-13.01 7.38125 -12.02 6.7625 -11 6.125 C-10.01 5.42375 -9.02 4.7225 -8 4 C-8 3.34 -8 2.68 -8 2 C-5.09399739 0.74335022 -3.20395416 0 0 0 Z " fill="#30C2F6" transform="translate(159,30)"/>
<path d="M0 0 C0.33 1.32 0.66 2.64 1 4 C20.8 4 40.6 4 61 4 C55.56047351 9.43952649 39.06480401 7.08205441 31.59375 7.09765625 C27.56244448 7.09514143 23.53126632 7.07950821 19.5 7.0625 C17.404949 7.05747084 15.30989681 7.05291046 13.21484375 7.04882812 C8.14319938 7.03794422 3.07161317 7.02075912 -2 7 C-1.125 1.125 -1.125 1.125 0 0 Z " fill="#89E1FB" transform="translate(83,100)"/>
<path d="M0 0 C0.66 0.66 1.32 1.32 2 2 C0.02 2 -1.96 2 -4 2 C-4.33 1.34 -4.66 0.68 -5 0 C-8.57892453 -1.19297484 -11.83893304 -1.14906738 -15.5625 -1.125 C-16.63081055 -1.12209961 -16.63081055 -1.12209961 -17.72070312 -1.11914062 C-23.18891806 -1.07460313 -28.57715332 -0.72999859 -34 0 C-25.85731494 -8.14268506 -9.10012294 -4.61746979 0 0 Z " fill="#5DCBF0" transform="translate(116,31)"/>
<path d="M0 0 C1.65 0 3.3 0 5 0 C4.62488281 0.49628906 4.24976562 0.99257812 3.86328125 1.50390625 C0.50836081 5.95741524 -2.77711236 10.45004098 -6 15 C-8.64 14.34 -11.28 13.68 -14 13 C-14 12.67 -14 12.34 -14 12 C-11.36 12 -8.72 12 -6 12 C-6 10.35 -6 8.7 -6 7 C-5.01 7 -4.02 7 -3 7 C-3 6.01 -3 5.02 -3 4 C-1.68 4 -0.36 4 1 4 C0.67 2.68 0.34 1.36 0 0 Z " fill="#4CC4F3" transform="translate(66,92)"/>
<path d="M0 0 C0.6953125 1.73046875 0.6953125 1.73046875 1 4 C-0.2578125 6.11328125 -0.2578125 6.11328125 -2.125 8.3125 C-4.4898568 11.16354492 -6.73604867 13.99458993 -8.8125 17.0625 C-9.8953125 18.5165625 -9.8953125 18.5165625 -11 20 C-11.66 20 -12.32 20 -13 20 C-11.43062793 15.30085164 -8.83473621 11.70040411 -5.9375 7.75 C-5.47794922 7.11320312 -5.01839844 6.47640625 -4.54492188 5.8203125 C-1.19148166 1.19148166 -1.19148166 1.19148166 0 0 Z " fill="#35BDF1" transform="translate(97,80)"/>
<path d="M0 0 C-0.68707031 0.61488281 -1.37414062 1.22976562 -2.08203125 1.86328125 C-3.43361328 3.07564453 -3.43361328 3.07564453 -4.8125 4.3125 C-5.70582031 5.11300781 -6.59914063 5.91351563 -7.51953125 6.73828125 C-8.95387384 8.04613064 -10.36399294 9.38407531 -11.69921875 10.79296875 C-13 12 -13 12 -15 12 C-15.66 13.32 -16.32 14.64 -17 16 C-19 13 -19 13 -19 11 C-17.88625 10.608125 -16.7725 10.21625 -15.625 9.8125 C-12.7093556 8.58886611 -12.16950827 8.35596738 -10.75 5.375 C-10.37875 4.199375 -10.37875 4.199375 -10 3 C-9.01 2.67 -8.02 2.34 -7 2 C-6.67 1.34 -6.34 0.68 -6 0 C-2.49056604 -1.24528302 -2.49056604 -1.24528302 0 0 Z " fill="#4FC6F4" transform="translate(99,65)"/>
<path d="M0 0 C-0.33 0.99 -0.66 1.98 -1 3 C1.64 3 4.28 3 7 3 C4.72204978 5.27795022 3.06212707 6.05219877 0 7 C-3.48251196 6.6735145 -6.15733389 4.97407369 -9 3 C-9 2.34 -9 1.68 -9 1 C-5.92677456 0.08941469 -3.19902639 -0.08886184 0 0 Z " fill="#5ECCF0" transform="translate(144,30)"/>
<path d="M0 0 C0.33 0 0.66 0 1 0 C1.03738281 1.02480469 1.07476562 2.04960938 1.11328125 3.10546875 C1.17897079 4.46618062 1.24541709 5.82685611 1.3125 7.1875 C1.33505859 7.86103516 1.35761719 8.53457031 1.38085938 9.22851562 C1.61821576 13.65197556 2.52017378 16.36336477 5 20 C5 20.66 5 21.32 5 22 C5.66 22 6.32 22 7 22 C7.33 23.65 7.66 25.3 8 27 C7.34 27 6.68 27 6 27 C0.3952135 20.08383717 -1.42993761 12.7420647 -1 4 C-0.5 1.5 -0.5 1.5 0 0 Z " fill="#64CDF2" transform="translate(38,73)"/>
<path d="M0 0 C4.23049245 6.34573868 4.18865902 12.23883462 3.484375 19.58203125 C3 22 3 22 1 25 C0.67 16.75 0.34 8.5 0 0 Z " fill="#5DCEF3" transform="translate(159,63)"/>
<path d="M0 0 C0.33 0 0.66 0 1 0 C1.75 3.1875 1.75 3.1875 2 7 C0.125 9.8125 0.125 9.8125 -2 12 C-2.33 12.66 -2.66 13.32 -3 14 C-5.31 14 -7.62 14 -10 14 C-10 13.67 -10 13.34 -10 13 C-8.35 13 -6.7 13 -5 13 C-4.731875 11.783125 -4.46375 10.56625 -4.1875 9.3125 C-3.3099455 5.78347726 -2.14426522 2.98332553 0 0 Z " fill="#51CBF1" transform="translate(67,44)"/>
<path d="M0 0 C1.98 0 3.96 0 6 0 C2.40764979 2.94281087 -1.27911641 5.64752238 -5.125 8.25 C-6.15882812 8.95640625 -7.19265625 9.6628125 -8.2578125 10.390625 C-11 12 -11 12 -14 12 C-13.34 10.68 -12.68 9.36 -12 8 C-10.68 8 -9.36 8 -8 8 C-8 7.34 -8 6.68 -8 6 C-7.01 6 -6.02 6 -5 6 C-5 5.34 -5 4.68 -5 4 C-3.35 3.67 -1.7 3.34 0 3 C0 2.01 0 1.02 0 0 Z " fill="#4FC7F2" transform="translate(120,45)"/>
<path d="M0 0 C0 0.66 0 1.32 0 2 C-0.99 2.33 -1.98 2.66 -3 3 C-3 4.32 -3 5.64 -3 7 C-1.02 7 0.96 7 3 7 C2.34 8.32 1.68 9.64 1 11 C0.01 11 -0.98 11 -2 11 C-4.1875 8 -4.1875 8 -6 5 C-3.74193548 0 -3.74193548 0 0 0 Z " fill="#63CAEF" transform="translate(151,35)"/>
<path d="M0 0 C1.2065625 0.0309375 1.2065625 0.0309375 2.4375 0.0625 C2.7675 1.7125 3.0975 3.3625 3.4375 5.0625 C1.4575 5.0625 -0.5225 5.0625 -2.5625 5.0625 C-3.125 3.125 -3.125 3.125 -3.5625 1.0625 C-2.5625 0.0625 -2.5625 0.0625 0 0 Z " fill="#07B4F9" transform="translate(150.5625,36.9375)"/>
<path d="M0 0 C0.66 0.33 1.32 0.66 2 1 C0.19587357 4.26460973 -0.83394693 5.88929795 -4 8 C-5.32 7.67 -6.64 7.34 -8 7 C-5.36 4.69 -2.72 2.38 0 0 Z " fill="#56CBF6" transform="translate(128,49)"/>
<path d="M0 0 C0.66 0.33 1.32 0.66 2 1 C0.71034824 2.37562854 -0.62689293 3.70766393 -2 5 C-2.66 5 -3.32 5 -4 5 C-4.66 6.32 -5.32 7.64 -6 9 C-8 6 -8 6 -8 4 C-6.865625 3.525625 -5.73125 3.05125 -4.5625 2.5625 C-1.24259834 1.36377917 -1.24259834 1.36377917 0 0 Z " fill="#64D3F6" transform="translate(88,72)"/>
<path d="M0 0 C1.65 1.65 3.3 3.3 5 5 C4.67 5.66 4.34 6.32 4 7 C2.35 7 0.7 7 -1 7 C-0.67 4.69 -0.34 2.38 0 0 Z " fill="#47C4F3" transform="translate(154,56)"/>
<path d="M0 0 C0.66 0.33 1.32 0.66 2 1 C0.625 3.5 0.625 3.5 -1 6 C-1.66 6 -2.32 6 -3 6 C-3.33 6.99 -3.66 7.98 -4 9 C-4.66 9 -5.32 9 -6 9 C-4.47291037 5.56404834 -2.40072955 2.88087546 0 0 Z " fill="#65D1F6" transform="translate(74,35)"/>
<path d="M0 0 C0.66 0.66 1.32 1.32 2 2 C0.35 3.65 -1.3 5.3 -3 7 C-3.185625 6.071875 -3.185625 6.071875 -3.375 5.125 C-3.87197356 2.80879168 -3.87197356 2.80879168 -6 1 C-3.125 0.375 -3.125 0.375 0 0 Z " fill="#72CAEC" transform="translate(165,26)"/>
<path d="M0 0 C1.2065625 0.0309375 1.2065625 0.0309375 2.4375 0.0625 C0.79580472 2.08304804 -0.87161778 4.08293058 -2.5625 6.0625 C-2.8925 6.0625 -3.2225 6.0625 -3.5625 6.0625 C-3.605221 4.39638095 -3.60313832 2.72867115 -3.5625 1.0625 C-2.5625 0.0625 -2.5625 0.0625 0 0 Z " fill="#52CBF3" transform="translate(78.5625,80.9375)"/>
<path d="M0 0 C0.33 0.99 0.66 1.98 1 3 C-1.21934164 6.32901247 -2.34683329 6.75023244 -6 8 C-4.55746343 4.63408134 -2.66735273 2.48952921 0 0 Z " fill="#66CEF4" transform="translate(104,72)"/>
<path d="M0 0 C2.97 0 5.94 0 9 0 C8.67 0.66 8.34 1.32 8 2 C7.34 2 6.68 2 6 2 C6 2.66 6 3.32 6 4 C1.125 2.25 1.125 2.25 0 0 Z " fill="#37C4F4" transform="translate(46,100)"/>
<path d="M0 0 C0.6875 1.75 0.6875 1.75 1 4 C-0.3125 6.25 -0.3125 6.25 -2 8 C-2.66 8 -3.32 8 -4 8 C-2.87548273 5.0280615 -1.77706209 2.66559313 0 0 Z " fill="#5BCEEF" transform="translate(88,92)"/>
<path d="M0 0 C1.65 0 3.3 0 5 0 C2.525 3.465 2.525 3.465 0 7 C-0.33 6.01 -0.66 5.02 -1 4 C-0.34 4 0.32 4 1 4 C0.67 2.68 0.34 1.36 0 0 Z " fill="#55CAEF" transform="translate(66,92)"/>
<path d="M0 0 C0.33 1.32 0.66 2.64 1 4 C-0.98 5.32 -2.96 6.64 -5 8 C-3.62845496 5.04590299 -2.01136276 2.55991624 0 0 Z " fill="#5ACCF5" transform="translate(97,80)"/>
<path d="M0 0 C0.99 0.33 1.98 0.66 3 1 C2.43628586 4.26954202 1.50037734 5.82575883 -1 8 C-0.67 5.36 -0.34 2.72 0 0 Z " fill="#3EC1F0" transform="translate(159,30)"/>
<path d="M0 0 C3.125 -0.1875 3.125 -0.1875 6 0 C6 0.66 6 1.32 6 2 C3.36 2.33 0.72 2.66 -2 3 C-1.34 2.01 -0.68 1.02 0 0 Z " fill="#09B6F6" transform="translate(144,31)"/>
</svg>
